<svg xmlns="http://www.w3.org/2000/svg" width="264" height="264" viewBox="0 0 264 264" shape-rendering="crispEdges">
<defs><linearGradient id="bg" x1="0" y1="0" x2="1" y2="1"><stop offset="0" stop-color="#64748b"/><stop offset="1" stop-color="#334155"/></linearGradient></defs>
<rect width="264" height="264" rx="52" fill="url(#bg)"/>
<rect x="55" y="44" width="11" height="11" fill="#ffffff"/>
<rect x="66" y="44" width="11" height="11" fill="#ffffff"/>
<rect x="77" y="44" width="11" height="11" fill="#ffffff"/>
<rect x="44" y="55" width="11" height="11" fill="#ffffff"/>
<rect x="55" y="55" width="11" height="11" fill="#ffffff"/>
<rect x="66" y="55" width="11" height="11" fill="#1e293b"/>
<rect x="77" y="55" width="11" height="11" fill="#ffffff"/>
<rect x="88" y="55" width="11" height="11" fill="#ffffff"/>
<rect x="44" y="66" width="11" height="11" fill="#ffffff"/>
<rect x="55" y="66" width="11" height="11" fill="#1e293b"/>
<rect x="66" y="66" width="11" height="11" fill="#1e293b"/>
<rect x="77" y="66" width="11" height="11" fill="#1e293b"/>
<rect x="88" y="66" width="11" height="11" fill="#ffffff"/>
<rect x="44" y="77" width="11" height="11" fill="#ffffff"/>
<rect x="55" y="77" width="11" height="11" fill="#ffffff"/>
<rect x="66" y="77" width="11" height="11" fill="#1e293b"/>
<rect x="77" y="77" width="11" height="11" fill="#ffffff"/>
<rect x="88" y="77" width="11" height="11" fill="#ffffff"/>
<rect x="55" y="88" width="11" height="11" fill="#ffffff"/>
<rect x="66" y="88" width="11" height="11" fill="#ffffff"/>
<rect x="77" y="88" width="11" height="11" fill="#ffffff"/>
<rect x="176" y="44" width="11" height="11" fill="#ffffff"/>
<rect x="187" y="44" width="11" height="11" fill="#ffffff"/>
<rect x="198" y="44" width="11" height="11" fill="#ffffff"/>
<rect x="165" y="55" width="11" height="11" fill="#ffffff"/>
<rect x="176" y="55" width="11" height="11" fill="#ffffff"/>
<rect x="187" y="55" width="11" height="11" fill="#1e293b"/>
<rect x="198" y="55" width="11" height="11" fill="#ffffff"/>
<rect x="209" y="55" width="11" height="11" fill="#ffffff"/>
<rect x="165" y="66" width="11" height="11" fill="#ffffff"/>
<rect x="176" y="66" width="11" height="11" fill="#1e293b"/>
<rect x="187" y="66" width="11" height="11" fill="#1e293b"/>
<rect x="198" y="66" width="11" height="11" fill="#1e293b"/>
<rect x="209" y="66" width="11" height="11" fill="#ffffff"/>
<rect x="165" y="77" width="11" height="11" fill="#ffffff"/>
<rect x="176" y="77" width="11" height="11" fill="#ffffff"/>
<rect x="187" y="77" width="11" height="11" fill="#1e293b"/>
<rect x="198" y="77" width="11" height="11" fill="#ffffff"/>
<rect x="209" y="77" width="11" height="11" fill="#ffffff"/>
<rect x="176" y="88" width="11" height="11" fill="#ffffff"/>
<rect x="187" y="88" width="11" height="11" fill="#ffffff"/>
<rect x="198" y="88" width="11" height="11" fill="#ffffff"/>
<rect x="99" y="66" width="11" height="11" fill="#ffffff"/>
<rect x="110" y="66" width="11" height="11" fill="#ffffff"/>
<rect x="121" y="66" width="11" height="11" fill="#ffffff"/>
<rect x="132" y="66" width="11" height="11" fill="#ffffff"/>
<rect x="143" y="66" width="11" height="11" fill="#ffffff"/>
<rect x="154" y="66" width="11" height="11" fill="#ffffff"/>
<rect x="99" y="77" width="11" height="11" fill="#ffffff"/>
<rect x="110" y="77" width="11" height="11" fill="#ffffff"/>
<rect x="121" y="77" width="11" height="11" fill="#ffffff"/>
<rect x="132" y="77" width="11" height="11" fill="#ffffff"/>
<rect x="143" y="77" width="11" height="11" fill="#ffffff"/>
<rect x="154" y="77" width="11" height="11" fill="#ffffff"/>
<rect x="88" y="88" width="11" height="11" fill="#ffffff"/>
<rect x="99" y="88" width="11" height="11" fill="#ffffff"/>
<rect x="110" y="88" width="11" height="11" fill="#ffffff"/>
<rect x="121" y="88" width="11" height="11" fill="#ffffff"/>
<rect x="132" y="88" width="11" height="11" fill="#ffffff"/>
<rect x="143" y="88" width="11" height="11" fill="#ffffff"/>
<rect x="154" y="88" width="11" height="11" fill="#ffffff"/>
<rect x="165" y="88" width="11" height="11" fill="#ffffff"/>
<rect x="66" y="99" width="11" height="11" fill="#ffffff"/>
<rect x="77" y="99" width="11" height="11" fill="#ffffff"/>
<rect x="88" y="99" width="11" height="11" fill="#ffffff"/>
<rect x="99" y="99" width="11" height="11" fill="#ffffff"/>
<rect x="110" y="99" width="11" height="11" fill="#ffffff"/>
<rect x="121" y="99" width="11" height="11" fill="#ffffff"/>
<rect x="132" y="99" width="11" height="11" fill="#ffffff"/>
<rect x="143" y="99" width="11" height="11" fill="#ffffff"/>
<rect x="154" y="99" width="11" height="11" fill="#ffffff"/>
<rect x="165" y="99" width="11" height="11" fill="#ffffff"/>
<rect x="176" y="99" width="11" height="11" fill="#ffffff"/>
<rect x="187" y="99" width="11" height="11" fill="#ffffff"/>
<rect x="66" y="110" width="11" height="11" fill="#ffffff"/>
<rect x="77" y="110" width="11" height="11" fill="#ffffff"/>
<rect x="88" y="110" width="11" height="11" fill="#1e293b"/>
<rect x="99" y="110" width="11" height="11" fill="#1e293b"/>
<rect x="110" y="110" width="11" height="11" fill="#ffffff"/>
<rect x="121" y="110" width="11" height="11" fill="#ffffff"/>
<rect x="132" y="110" width="11" height="11" fill="#ffffff"/>
<rect x="143" y="110" width="11" height="11" fill="#ffffff"/>
<rect x="154" y="110" width="11" height="11" fill="#1e293b"/>
<rect x="165" y="110" width="11" height="11" fill="#1e293b"/>
<rect x="176" y="110" width="11" height="11" fill="#ffffff"/>
<rect x="187" y="110" width="11" height="11" fill="#ffffff"/>
<rect x="66" y="121" width="11" height="11" fill="#ffffff"/>
<rect x="77" y="121" width="11" height="11" fill="#ffffff"/>
<rect x="88" y="121" width="11" height="11" fill="#ffffff"/>
<rect x="99" y="121" width="11" height="11" fill="#ffffff"/>
<rect x="110" y="121" width="11" height="11" fill="#ffffff"/>
<rect x="121" y="121" width="11" height="11" fill="#ffffff"/>
<rect x="132" y="121" width="11" height="11" fill="#ffffff"/>
<rect x="143" y="121" width="11" height="11" fill="#ffffff"/>
<rect x="154" y="121" width="11" height="11" fill="#ffffff"/>
<rect x="165" y="121" width="11" height="11" fill="#ffffff"/>
<rect x="176" y="121" width="11" height="11" fill="#ffffff"/>
<rect x="187" y="121" width="11" height="11" fill="#ffffff"/>
<rect x="55" y="132" width="11" height="11" fill="#ffffff"/>
<rect x="66" y="132" width="11" height="11" fill="#ffffff"/>
<rect x="77" y="132" width="11" height="11" fill="#ffffff"/>
<rect x="88" y="132" width="11" height="11" fill="#ffffff"/>
<rect x="99" y="132" width="11" height="11" fill="#ffffff"/>
<rect x="110" y="132" width="11" height="11" fill="#ffffff"/>
<rect x="121" y="132" width="11" height="11" fill="#ffffff"/>
<rect x="132" y="132" width="11" height="11" fill="#ffffff"/>
<rect x="143" y="132" width="11" height="11" fill="#ffffff"/>
<rect x="154" y="132" width="11" height="11" fill="#ffffff"/>
<rect x="165" y="132" width="11" height="11" fill="#ffffff"/>
<rect x="176" y="132" width="11" height="11" fill="#ffffff"/>
<rect x="187" y="132" width="11" height="11" fill="#ffffff"/>
<rect x="198" y="132" width="11" height="11" fill="#ffffff"/>
<rect x="66" y="143" width="11" height="11" fill="#ffffff"/>
<rect x="77" y="143" width="11" height="11" fill="#ffffff"/>
<rect x="88" y="143" width="11" height="11" fill="#ffffff"/>
<rect x="99" y="143" width="11" height="11" fill="#ffffff"/>
<rect x="110" y="143" width="11" height="11" fill="#1e293b"/>
<rect x="121" y="143" width="11" height="11" fill="#1e293b"/>
<rect x="132" y="143" width="11" height="11" fill="#1e293b"/>
<rect x="143" y="143" width="11" height="11" fill="#1e293b"/>
<rect x="154" y="143" width="11" height="11" fill="#ffffff"/>
<rect x="165" y="143" width="11" height="11" fill="#ffffff"/>
<rect x="176" y="143" width="11" height="11" fill="#ffffff"/>
<rect x="187" y="143" width="11" height="11" fill="#ffffff"/>
<rect x="66" y="154" width="11" height="11" fill="#ffffff"/>
<rect x="77" y="154" width="11" height="11" fill="#ffffff"/>
<rect x="88" y="154" width="11" height="11" fill="#ffffff"/>
<rect x="99" y="154" width="11" height="11" fill="#ffffff"/>
<rect x="110" y="154" width="11" height="11" fill="#1e293b"/>
<rect x="121" y="154" width="11" height="11" fill="#1e293b"/>
<rect x="132" y="154" width="11" height="11" fill="#1e293b"/>
<rect x="143" y="154" width="11" height="11" fill="#1e293b"/>
<rect x="154" y="154" width="11" height="11" fill="#ffffff"/>
<rect x="165" y="154" width="11" height="11" fill="#ffffff"/>
<rect x="176" y="154" width="11" height="11" fill="#ffffff"/>
<rect x="187" y="154" width="11" height="11" fill="#ffffff"/>
<rect x="66" y="165" width="11" height="11" fill="#ffffff"/>
<rect x="77" y="165" width="11" height="11" fill="#ffffff"/>
<rect x="88" y="165" width="11" height="11" fill="#ffffff"/>
<rect x="99" y="165" width="11" height="11" fill="#1e293b"/>
<rect x="110" y="165" width="11" height="11" fill="#1e293b"/>
<rect x="121" y="165" width="11" height="11" fill="#ffffff"/>
<rect x="132" y="165" width="11" height="11" fill="#1e293b"/>
<rect x="143" y="165" width="11" height="11" fill="#1e293b"/>
<rect x="154" y="165" width="11" height="11" fill="#1e293b"/>
<rect x="165" y="165" width="11" height="11" fill="#ffffff"/>
<rect x="176" y="165" width="11" height="11" fill="#ffffff"/>
<rect x="187" y="165" width="11" height="11" fill="#ffffff"/>
<rect x="77" y="176" width="11" height="11" fill="#ffffff"/>
<rect x="88" y="176" width="11" height="11" fill="#ffffff"/>
<rect x="99" y="176" width="11" height="11" fill="#ffffff"/>
<rect x="110" y="176" width="11" height="11" fill="#1e293b"/>
<rect x="121" y="176" width="11" height="11" fill="#1e293b"/>
<rect x="132" y="176" width="11" height="11" fill="#1e293b"/>
<rect x="143" y="176" width="11" height="11" fill="#1e293b"/>
<rect x="154" y="176" width="11" height="11" fill="#ffffff"/>
<rect x="165" y="176" width="11" height="11" fill="#ffffff"/>
<rect x="176" y="176" width="11" height="11" fill="#ffffff"/>
<rect x="88" y="187" width="11" height="11" fill="#ffffff"/>
<rect x="99" y="187" width="11" height="11" fill="#ffffff"/>
<rect x="110" y="187" width="11" height="11" fill="#1e293b"/>
<rect x="121" y="187" width="11" height="11" fill="#1e293b"/>
<rect x="132" y="187" width="11" height="11" fill="#1e293b"/>
<rect x="143" y="187" width="11" height="11" fill="#1e293b"/>
<rect x="154" y="187" width="11" height="11" fill="#ffffff"/>
<rect x="165" y="187" width="11" height="11" fill="#ffffff"/>
<rect x="99" y="198" width="11" height="11" fill="#ffffff"/>
<rect x="110" y="198" width="11" height="11" fill="#ffffff"/>
<rect x="121" y="198" width="11" height="11" fill="#ffffff"/>
<rect x="132" y="198" width="11" height="11" fill="#ffffff"/>
<rect x="143" y="198" width="11" height="11" fill="#ffffff"/>
<rect x="154" y="198" width="11" height="11" fill="#ffffff"/>
</svg>