<svg xmlns="http://www.w3.org/2000/svg" width="264" height="264" viewBox="0 0 264 264" shape-rendering="crispEdges">
<defs><linearGradient id="bg" x1="0" y1="0" x2="1" y2="1"><stop offset="0" stop-color="#41dcea"/><stop offset="1" stop-color="#2b7fb3"/></linearGradient></defs>
<rect width="264" height="264" rx="52" fill="url(#bg)"/>
<rect x="66" y="66" width="11" height="11" fill="#ffffff"/>
<rect x="77" y="66" width="11" height="11" fill="#ffffff"/>
<rect x="88" y="66" width="11" height="11" fill="#ffffff"/>
<rect x="99" y="77" width="11" height="11" fill="#1d5e87"/>
<rect x="110" y="77" width="11" height="11" fill="#1d5e87"/>
<rect x="121" y="77" width="11" height="11" fill="#1d5e87"/>
<rect x="132" y="77" width="11" height="11" fill="#1d5e87"/>
<rect x="143" y="77" width="11" height="11" fill="#1d5e87"/>
<rect x="154" y="77" width="11" height="11" fill="#1d5e87"/>
<rect x="165" y="88" width="11" height="11" fill="#ffffff"/>
<rect x="176" y="88" width="11" height="11" fill="#ffffff"/>
<rect x="187" y="88" width="11" height="11" fill="#ffffff"/>
<rect x="176" y="99" width="11" height="11" fill="#ffffff"/>
<rect x="176" y="110" width="11" height="11" fill="#1d5e87"/>
<rect x="165" y="121" width="11" height="11" fill="#1d5e87"/>
<rect x="165" y="132" width="11" height="11" fill="#1d5e87"/>
<rect x="154" y="143" width="11" height="11" fill="#1d5e87"/>
<rect x="154" y="154" width="11" height="11" fill="#1d5e87"/>
<rect x="143" y="165" width="11" height="11" fill="#1d5e87"/>
<rect x="143" y="176" width="11" height="11" fill="#ffffff"/>
<rect x="132" y="187" width="11" height="11" fill="#ffffff"/>
<rect x="121" y="187" width="11" height="11" fill="#ffffff"/>
<rect x="110" y="176" width="11" height="11" fill="#1d5e87"/>
<rect x="99" y="176" width="11" height="11" fill="#1d5e87"/>
<rect x="88" y="176" width="11" height="11" fill="#1d5e87"/>
<rect x="77" y="176" width="11" height="11" fill="#1d5e87"/>
<rect x="66" y="165" width="11" height="11" fill="#ffffff"/>
<rect x="55" y="165" width="11" height="11" fill="#ffffff"/>
<rect x="55" y="154" width="11" height="11" fill="#ffffff"/>
<rect x="55" y="143" width="11" height="11" fill="#ffffff"/>
<rect x="55" y="132" width="11" height="11" fill="#1d5e87"/>
<rect x="55" y="121" width="11" height="11" fill="#1d5e87"/>
<rect x="66" y="110" width="11" height="11" fill="#1d5e87"/>
<rect x="66" y="99" width="11" height="11" fill="#1d5e87"/>
<rect x="66" y="88" width="11" height="11" fill="#ffffff"/>
<rect x="66" y="77" width="11" height="11" fill="#ffffff"/>
<rect x="187" y="99" width="11" height="11" fill="#ffffff"/>
<rect x="187" y="110" width="11" height="11" fill="#ffffff"/>
<rect x="187" y="121" width="11" height="11" fill="#1d5e87"/>
<rect x="198" y="132" width="11" height="11" fill="#1d5e87"/>
<rect x="198" y="143" width="11" height="11" fill="#1d5e87"/>
<rect x="198" y="154" width="11" height="11" fill="#ffffff"/>
<rect x="198" y="165" width="11" height="11" fill="#ffffff"/>
<rect x="198" y="176" width="11" height="11" fill="#ffffff"/>
<rect x="66" y="44" width="11" height="11" fill="#ffffff"/>
<rect x="55" y="55" width="11" height="11" fill="#ffffff"/>
<rect x="66" y="55" width="11" height="11" fill="#ffffff"/>
<rect x="77" y="55" width="11" height="11" fill="#ffffff"/>
<rect x="44" y="66" width="11" height="11" fill="#ffffff"/>
<rect x="55" y="66" width="11" height="11" fill="#ffffff"/>
<rect x="55" y="77" width="11" height="11" fill="#ffffff"/>
<rect x="77" y="77" width="11" height="11" fill="#ffffff"/>
<rect x="187" y="66" width="11" height="11" fill="#ffffff"/>
<rect x="176" y="77" width="11" height="11" fill="#ffffff"/>
<rect x="187" y="77" width="11" height="11" fill="#ffffff"/>
<rect x="198" y="77" width="11" height="11" fill="#ffffff"/>
<rect x="198" y="88" width="11" height="11" fill="#ffffff"/>
<rect x="209" y="88" width="11" height="11" fill="#ffffff"/>
<rect x="198" y="99" width="11" height="11" fill="#ffffff"/>
<rect x="132" y="165" width="11" height="11" fill="#ffffff"/>
<rect x="121" y="176" width="11" height="11" fill="#ffffff"/>
<rect x="132" y="176" width="11" height="11" fill="#ffffff"/>
<rect x="110" y="187" width="11" height="11" fill="#ffffff"/>
<rect x="143" y="187" width="11" height="11" fill="#ffffff"/>
<rect x="154" y="187" width="11" height="11" fill="#ffffff"/>
<rect x="121" y="198" width="11" height="11" fill="#ffffff"/>
<rect x="132" y="198" width="11" height="11" fill="#ffffff"/>
<rect x="143" y="198" width="11" height="11" fill="#ffffff"/>
<rect x="132" y="209" width="11" height="11" fill="#ffffff"/>
<rect x="44" y="154" width="11" height="11" fill="#ffffff"/>
<rect x="66" y="154" width="11" height="11" fill="#ffffff"/>
<rect x="33" y="165" width="11" height="11" fill="#ffffff"/>
<rect x="44" y="165" width="11" height="11" fill="#ffffff"/>
<rect x="77" y="165" width="11" height="11" fill="#ffffff"/>
<rect x="44" y="176" width="11" height="11" fill="#ffffff"/>
<rect x="55" y="176" width="11" height="11" fill="#ffffff"/>
<rect x="66" y="176" width="11" height="11" fill="#ffffff"/>
<rect x="55" y="187" width="11" height="11" fill="#ffffff"/>
<rect x="187" y="165" width="11" height="11" fill="#ffffff"/>
<rect x="209" y="165" width="11" height="11" fill="#ffffff"/>
<rect x="176" y="176" width="11" height="11" fill="#ffffff"/>
<rect x="187" y="176" width="11" height="11" fill="#ffffff"/>
<rect x="209" y="176" width="11" height="11" fill="#ffffff"/>
<rect x="220" y="176" width="11" height="11" fill="#ffffff"/>
<rect x="187" y="187" width="11" height="11" fill="#ffffff"/>
<rect x="198" y="187" width="11" height="11" fill="#ffffff"/>
<rect x="209" y="187" width="11" height="11" fill="#ffffff"/>
<rect x="198" y="198" width="11" height="11" fill="#ffffff"/>
</svg>