<svg xmlns="http://www.w3.org/2000/svg" viewBox="0 0 64 64">
  <defs>
    <linearGradient id="bg" x1="0" y1="0" x2="1" y2="1">
      <stop offset="0%" stop-color="#0d1829"/>
      <stop offset="100%" stop-color="#111c35"/>
    </linearGradient>
    <linearGradient id="alpha" x1="0" y1="0" x2="1" y2="1">
      <stop offset="0%" stop-color="#38bdf8"/>
      <stop offset="100%" stop-color="#a78bfa"/>
    </linearGradient>
    <radialGradient id="glow" cx="0.6" cy="0.3" r="0.7">
      <stop offset="0%" stop-color="#38bdf8" stop-opacity="0.3"/>
      <stop offset="100%" stop-color="#38bdf8" stop-opacity="0"/>
    </radialGradient>
    <filter id="blur" x="-50%" y="-50%" width="200%" height="200%">
      <feGaussianBlur stdDeviation="0.8"/>
    </filter>
  </defs>
  <rect width="64" height="64" rx="14" fill="url(#bg)"/>
  <rect width="64" height="64" rx="14" fill="url(#glow)"/>
  <rect x="0.5" y="0.5" width="63" height="63" rx="13.5" fill="none" stroke="#38bdf8" stroke-opacity="0.35" stroke-width="1"/>
  <g filter="url(#blur)" opacity="0.55">
    <path d="M42 22 C37 16 28 14 22 19 C16 24 14 32 18 38 C22 44 30 46 36 42 C40 39 42 35 42 31 V52" stroke="url(#alpha)" stroke-width="6" stroke-linecap="round" stroke-linejoin="round" fill="none"/>
    <path d="M42 44 Q46 36 50 44 Q54 52 58 44" stroke="#38bdf8" stroke-width="4" stroke-linecap="round" fill="none"/>
  </g>
  <path d="M42 22 C37 16 28 14 22 19 C16 24 14 32 18 38 C22 44 30 46 36 42 C40 39 42 35 42 31 V52" stroke="url(#alpha)" stroke-width="4.5" stroke-linecap="round" stroke-linejoin="round" fill="none"/>
  <path d="M42 44 Q46 36 50 44 Q54 52 58 44" stroke="#38bdf8" stroke-width="2.5" stroke-linecap="round" fill="none"/>
</svg>
